<svg xmlns="http://www.w3.org/2000/svg" viewBox="0 0 121.51 23.19"><defs><style>.a{fill:#fff;}</style></defs><title>logo</title><path class="a" d="M106.09,22.81h8.56c3.48,0,6.86-2,6.86-6.3A5.43,5.43,0,0,0,116.62,11v0a5.36,5.36,0,0,0,4.22-5.33c0-3.67-2.52-5.59-6.36-5.59h-8.39Zm2-1.73V12h6c3,0,5.37,1.37,5.37,4.5s-2.33,4.63-5.31,4.63Zm0-10.83V1.72H114c2.71,0,4.85,1.25,4.85,4.19s-2.46,4.34-5.14,4.34Z"/><path class="a" d="M92.73,23.19c5.33,0,9.23-3.06,9.23-8.63V0H97V14.41c0,3-1.47,4.5-4.21,4.5-3,0-4.29-1.82-4.29-4.5V0h-5V14.85c0,5.59,3.65,8.34,9.17,8.34"/><path class="a" d="M75.54,15.18A8,8,0,0,0,80,8,7.68,7.68,0,0,0,72,0H62V22.79h5V4h3.89C73.57,4,75.1,5.7,75.1,8c0,2-1.2,4-4.28,4H67.71l7.83,10.87H81Z"/><path class="a" d="M25.6,22.77h.59v-4.3h0l1.58,3.05h.48l1.58-3.06h0v4.31h.59V17.4h-.76L28,20.69h0L26.35,17.4H25.6Zm-3.29.09a1.81,1.81,0,0,0,2-1.88V17.4h-.6v3.53a1.25,1.25,0,0,1-1.38,1.38,1.28,1.28,0,0,1-1.39-1.4V17.4h-.61V21a1.78,1.78,0,0,0,2,1.85m-7.22-.09h.61V20.26h2.72v2.51H19V17.4h-.61v2.33H15.7V17.4h-.61Zm-3,.1A1.69,1.69,0,0,0,14,21.25v-.19h-.58v.11c0,.73-.54,1.15-1.32,1.15A1.33,1.33,0,0,1,10.6,21V19.2A1.33,1.33,0,0,1,12,17.85c.79,0,1.36.42,1.36,1.15v.18H14v-.26A1.72,1.72,0,0,0,12,17.31a1.89,1.89,0,0,0-2,1.9v1.86a1.83,1.83,0,0,0,2.06,1.8m-5.18-.55A1.31,1.31,0,0,1,5.43,21V19.23a1.33,1.33,0,0,1,1.42-1.39,1.29,1.29,0,0,1,1.46,1.29V21a1.32,1.32,0,0,1-1.43,1.35m0,.55a1.92,1.92,0,0,0,2-1.95V19.15a1.87,1.87,0,0,0-2-1.86,1.92,1.92,0,0,0-2,1.95v1.83a1.84,1.84,0,0,0,2.05,1.8M.7,19.76V17.92H2c.61,0,1.07.26,1.07.9s-.51.94-1.11.94Zm0,2.49v-2H2.08c.66,0,1.16.29,1.16,1s-.5,1-1.15,1Zm-.61.52H2.21a1.5,1.5,0,0,0,1.64-1.5A1.28,1.28,0,0,0,2.76,20h0a1.23,1.23,0,0,0,.93-1.22c0-.88-.6-1.33-1.54-1.33H.09Z"/><path class="a" d="M44.64,14.08h1V9.57h1.55V8.71H43.09v.86h1.55ZM41.11,8.22H42v-1h-.9Zm-1.5,0h.89v-1h-.89ZM40,12.07l.73-2.14h0l.73,2.14Zm-1.68,2h1l.41-1.15h2.05l.39,1.15h1.06l-2-5.37h-.92Zm-2.31,0h1V9.57h1.55V8.71H34.51v.86h1.54Zm-3.44,0h1V8.71h-1Zm-3.07.08c1.18,0,2.06-.65,2.06-1.64A1.42,1.42,0,0,0,30.37,11l-.92-.23c-.42-.11-.78-.29-.78-.66s.42-.68.86-.68a1.15,1.15,0,0,1,1.15.62l.82-.36a1.81,1.81,0,0,0-1.89-1.11,1.71,1.71,0,0,0-1.92,1.6c0,.95.57,1.28,1.29,1.46l.9.21c.42.13.74.31.74.71s-.51.7-1.05.7a1.31,1.31,0,0,1-1.3-.81l-.9.36a2.08,2.08,0,0,0,2.17,1.32m-5.85-2.94V9.55h1c.55,0,1,.2,1,.84s-.39.83-1,.83Zm-1,2.86h1v-2h.87l1.25,2h1.1L25.57,12a1.6,1.6,0,0,0,1.07-1.56,1.66,1.66,0,0,0-1.83-1.68H22.69Zm-4.86,0h3.76v-.89H18.83V11.78h2.42V10.9H18.83V9.59h2.73V8.71H17.83Zm-3.45,0h1l1.78-5.39h-1l-1.21,3.95h0L13.7,8.71H12.62Zm-3.46,0h1V8.71h-1Zm-5.52,0h1V10.41h0l2.33,3.67h1V8.71h-1v3.66h0L6.37,8.71h-1Zm-3.3.08a1.91,1.91,0,0,0,2.1-2V8.71h-1V12.1c0,.77-.37,1.16-1.1,1.16A1,1,0,0,1,1,12.1V8.71H0v3.52a1.85,1.85,0,0,0,2.1,1.93"/><path class="a" d="M16.84,2.53V.86h1c.56,0,1,.2,1,.84s-.39.83-1,.83Zm-1,2.85h1v-2h.87l1.26,2h1.09L18.73,3.26A1.61,1.61,0,0,0,19.79,1.7,1.66,1.66,0,0,0,18,0H15.84Zm-5.38,0h1V3.09H13.6V5.38h1V0h-1v2.2H11.46V0h-1Zm-3.3.09a1.91,1.91,0,0,0,2.1-2V0h-1v3.4c0,.77-.36,1.16-1.09,1.16A1,1,0,0,1,6.05,3.41V0h-1V3.53A1.86,1.86,0,0,0,7.16,5.47M1,2.53V.86H2c.55,0,1,.2,1,.84s-.39.83-1,.83ZM0,5.38H1v-2h.87l1.25,2H4.25L2.92,3.26A1.59,1.59,0,0,0,4,1.7,1.66,1.66,0,0,0,2.16,0H0Z"/></svg>